<svg width="24" height="24" viewBox="0 0 24 24" fill="none" xmlns="http://www.w3.org/2000/svg">
<path d="M17.4033 7.58532H16.9205V2.59078C16.9205 1.17657 15.7702 0.0262527 14.3565 0.0262527H9.64365C8.2299 0.0262527 7.07959 1.17657 7.07959 2.59078V7.58532H6.59678C5.18303 7.58532 4.03271 8.73563 4.03271 10.1498V19.2998C4.03271 20.7141 5.18303 21.8644 6.59678 21.8644H17.4033C18.8171 21.8644 19.9674 20.7141 19.9674 19.2998V10.1498C19.9674 8.73563 18.8171 7.58532 17.4033 7.58532ZM18.5612 19.2998C18.5612 19.9397 18.0427 20.4581 17.4029 20.4581H6.59678C5.9574 20.4581 5.43896 19.9397 5.43896 19.3003V10.1498C5.43896 9.51094 5.95834 8.99157 6.59678 8.99157H10.5938C10.9819 8.99157 11.2969 8.67657 11.2969 8.28844C11.2969 7.90032 10.9819 7.58532 10.5938 7.58532H8.48584V2.59078C8.48584 1.95094 9.00428 1.4325 9.64412 1.4325H14.3565C14.9958 1.4325 15.5143 1.95094 15.5143 2.59032V7.58532H13.4063C13.0182 7.58532 12.7032 7.90032 12.7032 8.28844C12.7032 8.67657 13.0182 8.99157 13.4063 8.99157H17.4033C18.0418 8.99157 18.5612 9.51094 18.5612 10.1498V19.2998Z" fill="white"/>
<path d="M8.08662 24C7.03615 24 6.18115 23.145 6.18115 22.0945V21.1612C6.18115 20.7731 6.49615 20.4581 6.88428 20.4581H9.2885C9.67662 20.4581 9.99162 20.7731 9.99162 21.1612V22.0945C9.99162 23.145 9.13709 24 8.08662 24ZM7.5874 21.8644V22.0945C7.5874 22.3697 7.81146 22.5937 8.08662 22.5937C8.36178 22.5937 8.58537 22.3697 8.58537 22.0945V21.8644H7.5874ZM15.9143 24C14.8638 24 14.0088 23.145 14.0088 22.0945V21.1612C14.0088 20.7731 14.3238 20.4581 14.7119 20.4581H17.1162C17.5043 20.4581 17.8193 20.7731 17.8193 21.1612V22.0945C17.8193 23.145 16.9647 24 15.9143 24ZM15.4151 21.8644V22.0945C15.4151 22.3697 15.6391 22.5937 15.9143 22.5937C16.1894 22.5937 16.413 22.3697 16.413 22.0945V21.8644H15.4151ZM16.4894 13.7812C16.1013 13.7812 15.7863 13.4662 15.7863 13.0781V12.0712C15.7863 11.7586 15.5318 11.5041 15.2191 11.5041H8.78084C8.46818 11.5041 8.21365 11.7586 8.21365 12.0712V13.0781C8.21365 13.4662 7.89865 13.7812 7.51053 13.7812C7.1224 13.7812 6.8074 13.4662 6.8074 13.0781V12.0712C6.8074 10.9828 7.6924 10.0978 8.78084 10.0978H15.2191C16.3071 10.0978 17.1926 10.9833 17.1926 12.0712V13.0781C17.1926 13.4662 16.8776 13.7812 16.4894 13.7812Z" fill="white"/>
</svg>
